Coordinates
version=1
nRows=6
nColumns=63
inDegrees=yes

Units are S.I. units (second, meters, Newtons, ...)
If the header above contains a line with 'inDegrees', this indicates whether rotational values are in degrees (yes) or radians (no).

endheader
time	pelvis_tilt	pelvis_list	pelvis_rotation	pelvis_tx	pelvis_ty	pelvis_tz	hip_flexion_r	hip_adduction_r	hip_rotation_r	knee_angle_r	knee_angle_r_beta	ankle_angle_r	subtalar_angle_r	mtp_angle_r	hip_flexion_l	hip_adduction_l	hip_rotation_l	knee_angle_l	knee_angle_l_beta	ankle_angle_l	subtalar_angle_l	mtp_angle_l	L5_S1_Flex_Ext	L5_S1_Lat_Bending	L5_S1_axial_rotation	L4_L5_Flex_Ext	L4_L5_Lat_Bending	L4_L5_axial_rotation	L3_L4_Flex_Ext	L3_L4_Lat_Bending	L3_L4_axial_rotation	L2_L3_Flex_Ext	L2_L3_Lat_Bending	L2_L3_axial_rotation	L1_L2_Flex_Ext	L1_L2_Lat_Bending	L1_L2_axial_rotation	L1_T12_Flex_Ext	L1_T12_Lat_Bending	L1_T12_axial_rotation	Abs_r3	Abs_r2	Abs_r1	Abs_t1	Abs_t2	neck_flexion	neck_bending	neck_rotation	arm_flex_r	arm_add_r	arm_rot_r	elbow_flex_r	pro_sup_r	wrist_flex_r	wrist_dev_r	arm_flex_l	arm_add_l	arm_rot_l	elbow_flex_l	pro_sup_l	wrist_flex_l	wrist_dev_l
6.720000	-5.109185	-1.465922	92.093642	0.210342	0.936911	0.654737	-3.919081	0.051945	-9.613782	5.184919	0.090494	31.063367	8.037674	0.000000	-2.877417	-0.741139	-3.301373	6.674158	0.116486	32.162016	13.580498	0.000000	-0.533413	0.035522	-0.375808	-0.990601	0.047244	-0.399295	-0.876344	0.086368	-0.399295	-0.609637	0.086368	-0.328832	-0.495327	0.072436	-0.305344	-0.304792	0.055023	-0.281856	-3.810114	0.401830	-2.090129	0.000000	0.000000	12.236064	-4.122202	-4.093658	11.177254	-8.906228	177.554275	2.606947	4.976498	-3.338869	-5.692335	12.417086	-9.643245	172.302675	4.635282	6.827910	-1.841447	-2.733805
6.740000	-5.098353	-1.553956	91.836444	0.210746	0.936976	0.654378	-3.781526	0.029550	-9.548936	5.299140	0.092487	31.080395	8.278244	0.000000	-2.895221	-0.738906	-3.492107	6.530668	0.113982	31.973753	13.532622	0.000000	-0.531697	0.041067	-0.311358	-0.987415	0.054619	-0.330818	-0.873526	0.099849	-0.330818	-0.607677	0.099849	-0.272438	-0.493734	0.083743	-0.252978	-0.303812	0.063612	-0.233518	-3.797862	0.464554	-1.731679	0.000000	0.000000	13.017389	-4.954765	-4.128229	10.873511	-8.974937	176.628228	2.358558	4.833897	-3.221634	-5.709536	12.394629	-9.512227	173.556734	4.391564	6.701829	-2.157567	-2.607313
6.760000	-5.086516	-1.682343	91.613799	0.211095	0.937011	0.654089	-3.616412	0.022810	-9.302752	5.377063	0.093847	31.010031	8.240312	0.000000	-2.848152	-0.740385	-3.698759	6.416609	0.111991	31.795835	13.539611	0.000000	-0.529460	0.047491	-0.256736	-0.983259	0.063163	-0.272782	-0.869849	0.115470	-0.272782	-0.605119	0.115470	-0.224644	-0.491656	0.096844	-0.208598	-0.302533	0.073564	-0.192552	-3.781877	0.537229	-1.427888	0.000000	0.000000	13.796784	-5.825579	-4.142760	10.625475	-9.086181	174.833893	2.315689	4.779350	-3.052544	-5.669901	12.367668	-9.402361	174.681499	4.138557	6.581466	-2.472492	-2.514039
6.780000	-5.067387	-1.836700	91.429175	0.211389	0.937023	0.653837	-3.450540	0.043508	-8.776355	5.397562	0.094205	30.821994	7.781974	0.000000	-2.746731	-0.753714	-3.901970	6.348891	0.110809	31.642904	13.573073	0.000000	-0.527442	0.055230	-0.215298	-0.979513	0.073456	-0.228754	-0.866534	0.134286	-0.228754	-0.602813	0.134286	-0.188386	-0.489783	0.112625	-0.174930	-0.301380	0.085551	-0.161474	-3.767465	0.624770	-1.197425	0.000000	0.000000	14.522840	-6.674249	-4.109182	10.449598	-9.238597	172.174681	2.493950	4.810530	-2.830841	-5.594339	12.320951	-9.315468	175.520847	3.893905	6.506173	-2.802997	-2.466936
6.800000	-5.061217	-2.015477	91.273228	0.211637	0.937012	0.653606	-3.287076	0.060573	-8.144822	5.361005	0.093567	30.568466	7.169136	0.000000	-2.613987	-0.752741	-4.071891	6.283486	0.109668	31.492605	13.599822	0.000000	-0.525155	0.061329	-0.186590	-0.975265	0.081567	-0.198252	-0.862777	0.149115	-0.198252	-0.600199	0.149115	-0.163266	-0.487659	0.125062	-0.151605	-0.300073	0.094998	-0.139943	-3.751127	0.693764	-1.037759	0.000000	0.000000	15.226892	-7.461798	-4.019926	10.306239	-9.329838	169.941872	2.631334	4.633950	-2.566878	-5.537200	12.243795	-9.244007	176.303502	3.606589	6.395666	-3.046719	-2.454110
6.820000	-5.065372	-2.201300	91.131168	0.211881	0.936990	0.653355	-3.149296	0.080162	-7.248704	5.251926	0.091663	30.219874	6.195347	0.000000	-2.470378	-0.740821	-4.203786	6.225201	0.108650	31.352539	13.591988	0.000000	-0.522262	0.065528	-0.166636	-0.969892	0.087152	-0.177051	-0.858024	0.159324	-0.177051	-0.596893	0.159324	-0.145806	-0.484972	0.133624	-0.135392	-0.298420	0.101502	-0.124977	-3.730462	0.741262	-0.926779	0.000000	0.000000	15.895325	-8.154707	-3.847149	10.195811	-9.382991	167.976995	2.765459	4.422311	-2.323404	-5.487714	12.142361	-9.198166	176.851370	3.341454	6.273365	-3.262170	-2.485324
